<svg fill="none" height="348" viewBox="0 0 511 348" width="511" xmlns="http://www.w3.org/2000/svg" xmlns:xlink="http://www.w3.org/1999/xlink"><filter id="a" color-interpolation-filters="sRGB" filterUnits="userSpaceOnUse" height="209.04" width="509.645" x=".493652" y="53.48"><feFlood flood-opacity="0" result="BackgroundImageFix"/><feColorMatrix in="SourceAlpha" result="hardAlpha" type="matrix" values="0 0 0 0 0 0 0 0 0 0 0 0 0 0 0 0 0 0 127 0"/><feOffset dy="11"/><feGaussianBlur stdDeviation="12"/><feColorMatrix type="matrix" values="0 0 0 0 0 0 0 0 0 0.419608 0 0 0 0 0.980392 0 0 0 0.3 0"/><feBlend in2="BackgroundImageFix" mode="normal" result="effect1_dropShadow_5138_30584"/><feBlend in="SourceGraphic" in2="effect1_dropShadow_5138_30584" mode="normal" result="shape"/></filter><linearGradient id="b" gradientUnits="userSpaceOnUse" x1="260.016" x2="118.328" y1="347.485" y2="72.4873"><stop offset="0" stop-color="#006bfa" stop-opacity=".2"/><stop offset="1" stop-color="#00cbe0"/></linearGradient><path clip-rule="evenodd" d="m245.048.281923c75.167-4.314823 147.639 41.244277 170.062 112.937077 21.734 69.488-19.464 138.037-77.948 181.576-61.437 45.738-145.547 76.902-205.88 29.725-56.6363-44.287-28.891-126.963-5.119-194.715 21.432-61.0827 54.111-125.8049 118.885-129.523077z" fill="url(#b)" fill-rule="evenodd" opacity=".15"/><path d="m119.562 299v-22.4h9.696c2.006 0 3.734.331 5.184.992 1.451.64 2.571 1.568 3.36 2.784.79 1.216 1.184 2.667 1.184 4.352 0 1.664-.394 3.104-1.184 4.32-.789 1.216-1.909 2.155-3.36 2.816-1.45.64-3.178.96-5.184.96h-6.816l2.304-2.336v8.512zm5.184-7.936-2.304-2.464h6.528c1.6 0 2.795-.341 3.584-1.024.79-.683 1.184-1.632 1.184-2.848 0-1.237-.394-2.197-1.184-2.88-.789-.683-1.984-1.024-3.584-1.024h-6.528l2.304-2.464zm28.993 7.936v-3.36l-.32-.736v-6.016c0-1.067-.331-1.899-.992-2.496-.64-.597-1.632-.896-2.976-.896-.917 0-1.824.149-2.72.448-.875.277-1.621.661-2.24 1.152l-1.792-3.488c.939-.661 2.069-1.173 3.392-1.536s2.667-.544 4.032-.544c2.624 0 4.661.619 6.112 1.856s2.176 3.168 2.176 5.792v9.824zm-5.248.256c-1.344 0-2.496-.224-3.456-.672-.96-.469-1.696-1.099-2.208-1.888s-.768-1.675-.768-2.656c0-1.024.245-1.92.736-2.688.512-.768 1.312-1.365 2.4-1.792 1.088-.448 2.507-.672 4.256-.672h4.576v2.912h-4.032c-1.173 0-1.984.192-2.432.576-.427.384-.64.864-.64 1.44 0 .64.245 1.152.736 1.536.512.363 1.205.544 2.08.544.832 0 1.579-.192 2.24-.576.661-.405 1.141-.992 1.44-1.76l.768 2.304c-.363 1.109-1.024 1.952-1.984 2.528s-2.197.864-3.712.864zm23.659 6.208c-1.621 0-3.189-.203-4.704-.608-1.493-.384-2.741-.971-3.744-1.76l1.984-3.584c.725.597 1.643 1.067 2.752 1.408 1.131.363 2.24.544 3.328.544 1.771 0 3.051-.395 3.84-1.184.811-.789 1.216-1.963 1.216-3.52v-2.592l.32-4.32-.064-4.352v-3.712h4.736v14.336c0 3.2-.832 5.557-2.496 7.072s-4.053 2.272-7.168 2.272zm-.768-7.296c-1.6 0-3.051-.341-4.352-1.024-1.28-.704-2.315-1.675-3.104-2.912-.768-1.259-1.152-2.72-1.152-4.384 0-1.685.384-3.147 1.152-4.384.789-1.259 1.824-2.229 3.104-2.912 1.301-.683 2.752-1.024 4.352-1.024 1.451 0 2.731.299 3.84.896 1.109.576 1.973 1.483 2.592 2.72.619 1.216.928 2.784.928 4.704 0 1.899-.309 3.467-.928 4.704-.619 1.216-1.483 2.123-2.592 2.72s-2.389.896-3.84.896zm.992-4.096c.875 0 1.653-.171 2.336-.512.683-.363 1.216-.864 1.6-1.504s.576-1.376.576-2.208c0-.853-.192-1.589-.576-2.208-.384-.64-.917-1.131-1.6-1.472-.683-.363-1.461-.544-2.336-.544s-1.653.181-2.336.544c-.683.341-1.227.832-1.632 1.472-.384.619-.576 1.355-.576 2.208 0 .832.192 1.568.576 2.208.405.64.949 1.141 1.632 1.504.683.341 1.461.512 2.336.512zm23.63 5.184c-1.962 0-3.69-.384-5.184-1.152-1.472-.768-2.613-1.813-3.424-3.136-.81-1.344-1.216-2.869-1.216-4.576 0-1.728.395-3.253 1.184-4.576.811-1.344 1.91-2.389 3.296-3.136 1.387-.768 2.955-1.152 4.704-1.152 1.686 0 3.2.363 4.544 1.088 1.366.704 2.443 1.728 3.232 3.072.79 1.323 1.184 2.912 1.184 4.768 0 .192-.01.416-.032.672-.021.235-.042.459-.064.672h-13.984v-2.912h11.36l-1.92.864c0-.896-.181-1.675-.544-2.336-.362-.661-.864-1.173-1.504-1.536-.64-.384-1.386-.576-2.24-.576-.853 0-1.61.192-2.272.576-.64.363-1.141.885-1.504 1.568-.362.661-.544 1.451-.544 2.368v.768c0 .939.203 1.771.608 2.496.427.704 1.014 1.248 1.76 1.632.768.363 1.664.544 2.688.544.918 0 1.718-.139 2.4-.416.704-.277 1.344-.693 1.92-1.248l2.656 2.88c-.789.896-1.781 1.589-2.976 2.08-1.194.469-2.57.704-4.128.704zm33.17-17.728c1.366 0 2.582.277 3.648.832 1.088.533 1.942 1.365 2.56 2.496.619 1.109.928 2.539.928 4.288v9.856h-4.992v-9.088c0-1.387-.309-2.411-.928-3.072-.597-.661-1.45-.992-2.56-.992-.789 0-1.504.171-2.144.512-.618.32-1.109.821-1.472 1.504-.341.683-.512 1.557-.512 2.624v8.512h-4.992v-17.216h4.768v4.768l-.896-1.44c.619-1.152 1.504-2.037 2.656-2.656s2.464-.928 3.936-.928zm20.978 17.728c-1.834 0-3.466-.384-4.896-1.152-1.408-.768-2.528-1.813-3.36-3.136-.81-1.344-1.216-2.869-1.216-4.576 0-1.728.406-3.253 1.216-4.576.832-1.344 1.952-2.389 3.36-3.136 1.43-.768 3.062-1.152 4.896-1.152 1.814 0 3.435.384 4.864 1.152 1.43.747 2.55 1.781 3.36 3.104.811 1.323 1.216 2.859 1.216 4.608 0 1.707-.405 3.232-1.216 4.576-.81 1.323-1.93 2.368-3.36 3.136-1.429.768-3.05 1.152-4.864 1.152zm0-4.096c.832 0 1.579-.192 2.24-.576.662-.384 1.184-.928 1.568-1.632.384-.725.576-1.579.576-2.56 0-1.003-.192-1.856-.576-2.56s-.906-1.248-1.568-1.632c-.661-.384-1.408-.576-2.24-.576s-1.578.192-2.24.576c-.661.384-1.194.928-1.6 1.632-.384.704-.576 1.557-.576 2.56 0 .981.192 1.835.576 2.56.406.704.939 1.248 1.6 1.632.662.384 1.408.576 2.24.576zm20.817 4.096c-2.027 0-3.605-.512-4.736-1.536-1.131-1.045-1.696-2.592-1.696-4.64v-15.104h4.992v15.04c0 .725.192 1.291.576 1.696.384.384.907.576 1.568.576.789 0 1.461-.213 2.016-.64l1.344 3.52c-.512.363-1.131.64-1.856.832-.704.171-1.44.256-2.208.256zm-9.088-13.248v-3.84h11.936v3.84zm27.625 12.992v-17.6c0-1.941.576-3.488 1.728-4.64 1.152-1.173 2.794-1.76 4.928-1.76.725 0 1.418.075 2.08.224.682.149 1.258.384 1.728.704l-1.312 3.616c-.278-.192-.587-.341-.928-.448-.342-.107-.704-.16-1.088-.16-.726 0-1.291.213-1.696.64-.384.405-.576 1.024-.576 1.856v1.6l.128 2.144v13.824zm-2.656-12.992v-3.84h11.936v3.84zm23.396 13.248c-1.835 0-3.467-.384-4.896-1.152-1.408-.768-2.528-1.813-3.36-3.136-.811-1.344-1.216-2.869-1.216-4.576 0-1.728.405-3.253 1.216-4.576.832-1.344 1.952-2.389 3.36-3.136 1.429-.768 3.061-1.152 4.896-1.152 1.813 0 3.435.384 4.864 1.152 1.429.747 2.549 1.781 3.36 3.104s1.216 2.859 1.216 4.608c0 1.707-.405 3.232-1.216 4.576-.811 1.323-1.931 2.368-3.36 3.136s-3.051 1.152-4.864 1.152zm0-4.096c.832 0 1.579-.192 2.24-.576s1.184-.928 1.568-1.632c.384-.725.576-1.579.576-2.56 0-1.003-.192-1.856-.576-2.56s-.907-1.248-1.568-1.632-1.408-.576-2.24-.576-1.579.192-2.24.576-1.195.928-1.6 1.632c-.384.704-.576 1.557-.576 2.56 0 .981.192 1.835.576 2.56.405.704.939 1.248 1.6 1.632s1.408.576 2.24.576zm21.041 4.096c-1.43 0-2.71-.277-3.84-.832-1.11-.555-1.974-1.397-2.592-2.528-.619-1.152-.928-2.613-.928-4.384v-9.728h4.992v8.992c0 1.429.298 2.485.896 3.168.618.661 1.482.992 2.592.992.768 0 1.45-.16 2.048-.48.597-.341 1.066-.853 1.408-1.536.341-.704.512-1.579.512-2.624v-8.512h4.992v17.216h-4.736v-4.736l.864 1.376c-.576 1.195-1.43 2.101-2.56 2.72-1.11.597-2.326.896-3.648.896zm26.169-17.728c1.365 0 2.581.277 3.648.832 1.088.533 1.941 1.365 2.56 2.496.618 1.109.928 2.539.928 4.288v9.856h-4.992v-9.088c0-1.387-.31-2.411-.928-3.072-.598-.661-1.451-.992-2.56-.992-.79 0-1.504.171-2.144.512-.619.32-1.11.821-1.472 1.504-.342.683-.512 1.557-.512 2.624v8.512h-4.992v-17.216h4.768v4.768l-.896-1.44c.618-1.152 1.504-2.037 2.656-2.656s2.464-.928 3.936-.928zm20.178 17.728c-1.622 0-3.083-.363-4.384-1.088-1.302-.747-2.336-1.781-3.104-3.104-.747-1.323-1.12-2.88-1.12-4.672 0-1.813.373-3.381 1.12-4.704.768-1.323 1.802-2.347 3.104-3.072 1.301-.725 2.762-1.088 4.384-1.088 1.45 0 2.72.32 3.808.96s1.93 1.611 2.528 2.912c.597 1.301.896 2.965.896 4.992 0 2.005-.288 3.669-.864 4.992-.576 1.301-1.408 2.272-2.496 2.912-1.067.64-2.358.96-3.872.96zm.864-4.096c.81 0 1.546-.192 2.208-.576.661-.384 1.184-.928 1.568-1.632.405-.725.608-1.579.608-2.56 0-1.003-.203-1.856-.608-2.56-.384-.704-.907-1.248-1.568-1.632-.662-.384-1.398-.576-2.208-.576-.832 0-1.579.192-2.24.576-.662.384-1.195.928-1.6 1.632-.384.704-.576 1.557-.576 2.56 0 .981.192 1.835.576 2.56.405.704.938 1.248 1.6 1.632.661.384 1.408.576 2.24.576zm4.512 3.84v-3.52l.096-5.12-.32-5.088v-10.016h4.992v23.744z" fill="#006bfa"/><g filter="url(#a)"><path d="m24.4936 197.6v-33l65.34-94.6h53.2404l-62.9204 94.6-24.2-7.26h119.2404v40.26zm79.8604 26.4v-26.4l1.54-40.26v-23.54h48.84v90.2zm148.821 3.52c-13.64 0-25.74-3.153-36.3-9.46-10.414-6.307-18.627-15.473-24.64-27.5-5.867-12.027-8.8-26.547-8.8-43.56s2.933-31.533 8.8-43.56c6.013-12.0267 14.226-21.1933 24.64-27.5 10.56-6.3067 22.66-9.46 36.3-9.46s25.666 3.1533 36.08 9.46c10.56 6.3067 18.773 15.4733 24.64 27.5 6.013 12.027 9.02 26.547 9.02 43.56s-3.007 31.533-9.02 43.56c-5.867 12.027-14.08 21.193-24.64 27.5-10.414 6.307-22.44 9.46-36.08 9.46zm0-41.58c3.373 0 6.38-1.173 9.02-3.52s4.693-6.38 6.16-12.1c1.613-5.72 2.42-13.493 2.42-23.32 0-9.973-.807-17.747-2.42-23.32-1.467-5.72-3.52-9.753-6.16-12.1s-5.647-3.52-9.02-3.52c-3.374 0-6.38 1.173-9.02 3.52s-4.767 6.38-6.38 12.1c-1.467 5.573-2.2 13.347-2.2 23.32 0 9.827.733 17.6 2.2 23.32 1.613 5.72 3.74 9.753 6.38 12.1s5.646 3.52 9.02 3.52zm82.264 11.66v-33l65.34-94.6h53.24l-62.92 94.6-24.2-7.26h119.24v40.26zm79.86 26.4v-26.4l1.54-40.26v-23.54h48.84v90.2z" fill="#006bfa"/></g></svg>