<?xml version="1.0" encoding="UTF-8"?>
<svg id="Layer_1" data-name="Layer 1" xmlns="http://www.w3.org/2000/svg" xmlns:xlink="http://www.w3.org/1999/xlink" viewBox="0 0 945 281">
  <defs>
    <style>
      .cls-1 {
        clip-path: url(#clippath);
      }

      .cls-2, .cls-3 {
        fill: #fff;
      }

      .cls-3 {
        stroke-width: 0px;
      }
    </style>
    <clipPath id="clippath">
      <path class="cls-3" d="M47.73,96.57c14.23-14.47,33.21-22.24,53.4-21.88,8.93.32,17.5,3.22,24.77,8.38.95.67,2.2.65,3.12-.07.92-.72,1.26-1.91.87-3.02-.15-.43-.29-.86-.41-1.3-.42-1.56-.64-3.17-.64-4.79,0-4.81,1.85-9.35,5.2-12.76,3.35-3.41,7.8-5.29,12.53-5.29,1.14,0,2.28.11,3.39.33,1.23.24,2.39-.37,2.91-1.54.51-1.16.19-2.45-.8-3.22-7.6-5.91-16.06-10.45-25.14-13.52-8.85-2.99-18.09-4.51-27.45-4.51-11.28,0-22.27,2.17-32.67,6.46-10.77,4.44-20.43,10.96-28.7,19.38-12.58,12.81-20.88,29-24,46.81-3.05,17.4-.99,35.12,5.95,51.24l.05.12c.55,1.27,1.72,2.03,3.02,2.03.28,0,.57-.04.86-.11,1.62-.42,2.66-1.9,2.52-3.59-1.8-22.03,5.94-43.6,21.23-59.17ZM23.87,155.96c.05.56-.36.72-.54.77-.22.06-.61.08-.82-.41l-.05-.11c-6.73-15.63-8.72-32.82-5.76-49.69,3.03-17.27,11.08-32.97,23.27-45.39,8.02-8.17,17.38-14.49,27.82-18.79,10.09-4.16,20.75-6.26,31.68-6.26,9.08,0,18.04,1.47,26.63,4.37,8.79,2.97,16.98,7.37,24.36,13.1-1.27-.25-2.58-.38-3.89-.38,0,0,0,0,0,0-5.43,0-10.54,2.16-14.39,6.08-3.85,3.92-5.97,9.13-5.97,14.66,0,1.86.25,3.71.73,5.5.13.49.29.98.46,1.48-7.7-5.46-16.75-8.52-26.2-8.86h-.02c-20.93-.37-40.57,7.68-55.32,22.66-15.84,16.13-23.86,38.47-22,61.28ZM164.9,179.76c12.54-14.65,20.01-33.13,21.17-52.68,1.26-21.4-5.08-42.46-17.85-59.31-.71-.94-1.95-1.25-3.01-.74-1.06.51-1.62,1.68-1.35,2.84l.02.09c.28,1.29.43,2.61.43,3.94,0,.84-.07,1.66-.18,2.47-2.56,12.92-24.3,34.55-19.3,29.45-.83.84-1.18,2.03-.97,3.19.69,3.7,2.07,12,1.67,16.73-.94,11.05-5.66,21.45-13.35,29.28-4.07,4.14-8.81,7.44-14.09,9.79-3.65,1.63-7.51,2.77-11.47,3.4-7.05,1.11-14.36.55-21.14-1.63-7.01-2.25-13.47-6.25-18.69-11.57-4.07-4.14-7.31-8.97-9.62-14.34-1.28-2.97-2.26-6.1-2.91-9.3-1.29-6.31-1.31-12.7-.06-19.02,1.2-6.06,3.52-11.75,6.89-16.87-.45-2.83-2.89-3.58-4.39-2.25l-.07.06c-1.13,1.01-2.21,2.03-3.2,3.04-9.49,9.66-15.75,21.88-18.11,35.32-2.3,13.13-.75,26.49,4.48,38.66,3.28,7.61,7.86,14.44,13.62,20.31,10.97,11.17,25.56,18.02,41.06,19.27h.03c1.63.1,3.26.14,4.88.14,12.03,0,24.04-2.54,35.01-7.43,8.99-4.01,17.18-9.51,24.35-16.34h.01s.12-.12.12-.12M168.87,90.1c.12,1.22.2,2.44.26,3.67.01.26.03.53.04.79.05,1.21.07,2.41.05,3.62,0,.2-.01.41-.01.61-.01,1.1-.07,2.2-.14,3.29-.01.21-.02.41-.04.62-.09,1.21-.21,2.41-.36,3.62-.03.26-.07.52-.1.78-.17,1.24-.35,2.47-.58,3.71-2.62,14.05-9.26,26.84-19.21,36.96-5.75,5.86-12.38,10.6-19.69,14.09-.63.3-1.27.58-1.91.86,2.45-1.71,4.74-3.65,6.86-5.81,8.13-8.28,13.14-19.27,14.11-30.95.45-5.44,0-10.88-1.27-16.1-.24-1,.01-2.06.73-2.8-4.56,4.75,16.13-15.89,18.66-28.27l.22-.59c.03-.08.06-.17.09-.25.04.15.08.3.12.44.29.91.51,1.85.69,2.79.06.32.14.63.21.94.25,1.18.47,2.36.67,3.54M133.35,200.14c-12.06,5.38-25.44,7.83-38.67,7.07-14.87-1.2-28.86-7.77-39.39-18.49-5.53-5.63-9.93-12.19-13.07-19.49-5.02-11.67-6.51-24.51-4.3-37.11,2.26-12.9,8.27-24.62,17.38-33.89.75-.77,1.55-1.54,2.4-2.31-2.92,4.9-4.96,10.24-6.08,15.9-1.31,6.65-1.29,13.4.06,20.05.06.46.14.92.22,1.38.08.53.16,1.06.25,1.59.09.48.19.96.28,1.44.1.5.19,1.01.3,1.51.11.5.23.99.35,1.48.11.48.22.96.34,1.43.14.53.29,1.05.44,1.57.12.43.24.87.37,1.3.16.54.35,1.08.53,1.62.13.4.25.81.39,1.21.19.54.4,1.08.6,1.62.14.39.28.78.43,1.16.21.55.45,1.09.68,1.63.15.37.3.74.46,1.1.25.57.52,1.13.79,1.7.15.33.3.66.46.98.28.57.58,1.13.87,1.69.16.31.31.63.48.93.32.6.66,1.18,1,1.77.15.27.3.54.45.8.37.62.75,1.23,1.14,1.83.14.22.28.45.42.68.43.67.88,1.32,1.34,1.98.11.16.21.32.32.47.4.56.82,1.12,1.23,1.67.18.24.35.48.53.72.45.59.92,1.16,1.39,1.73.16.19.31.39.47.59.48.57.97,1.12,1.46,1.68.17.19.33.39.5.57.67.74,1.36,1.47,2.06,2.18,4.6,4.69,9.74,8.68,15.29,11.91,7.13,4.15,14.94,7.04,23.17,8.54.01,0,.02,0,.04,0,.96.17,1.92.32,2.88.46.3.04.6.08.89.12.7.09,1.4.17,2.11.24.31.03.62.06.93.09.83.07,1.66.13,2.49.17.15,0,.29.02.44.03.97.04,1.94.06,2.91.07.08,0,.16,0,.24,0,.15,0,.29-.01.44-.01.96,0,1.92-.03,2.88-.08.21,0,.42-.02.64-.03,1.1-.06,2.19-.15,3.28-.26.25-.03.51-.06.76-.09.89-.1,1.78-.2,2.66-.35.23-.04.46-.07.69-.1,1.09-.17,2.17-.38,3.24-.6.27-.06.53-.12.79-.17.89-.19,1.79-.39,2.67-.64.19-.06.39-.1.58-.15,1.06-.29,2.12-.6,3.17-.94.57-.18,1.14-.39,1.72-.55.53-.15,1.06-.31,1.55-.56.22-.12.46-.19.68-.28.04-.02.09-.03.13-.05-5,3.76-10.39,6.93-16.12,9.49ZM183.44,126.91c-1.23,20.93-9.92,40.6-24.45,55.4-.52.53-1.09,1.09-1.77,1.75-.59.33-1.19.64-1.79.95-.3.16-.6.33-.9.48-.93.47-1.87.91-2.82,1.34-12.53,5.59-26.29,7.31-39.82,5-.25-.04-.5-.08-.75-.12-5.29-.96-10.4-2.52-15.25-4.64-3.24-1.41-6.36-3.07-9.35-4.97-4.48-2.85-8.66-6.22-12.46-10.1-.01-.01-.02-.02-.03-.03-.72-.74-1.42-1.49-2.11-2.25-.23-.26-.45-.52-.68-.78-.46-.52-.91-1.05-1.35-1.58-.26-.31-.5-.63-.75-.94-.4-.5-.79-1-1.18-1.51-.25-.33-.5-.67-.74-1.01-.37-.51-.73-1.02-1.08-1.53-.23-.34-.47-.68-.7-1.03-.36-.54-.7-1.09-1.04-1.64-.2-.33-.41-.65-.61-.98-.38-.64-.75-1.28-1.11-1.93-.14-.25-.29-.5-.42-.75-.49-.9-.96-1.81-1.4-2.73-.1-.2-.18-.4-.28-.6-.35-.73-.68-1.46-1-2.2-.03-.07-.06-.14-.09-.21,1.62,2.35,3.43,4.55,5.45,6.6,5.52,5.62,12.35,9.85,19.76,12.23,7.15,2.3,14.86,2.89,22.3,1.73.69-.07,1.38-.17,2.07-.27.31-.04.62-.07.93-.12.64-.1,1.28-.21,1.91-.33.36-.06.72-.12,1.08-.19.61-.12,1.22-.26,1.83-.39.38-.08.76-.16,1.14-.24.61-.15,1.22-.31,1.83-.48.37-.1.74-.18,1.1-.29.6-.17,1.2-.36,1.79-.55.37-.11.73-.22,1.1-.34.7-.23,1.4-.49,2.09-.74.25-.09.51-.17.76-.27.66-.25,1.32-.52,1.98-.79.28-.11.56-.22.84-.34.93-.4,1.85-.81,2.77-1.25,7.59-3.62,14.47-8.55,20.44-14.63,1.29-1.31,2.53-2.67,3.71-4.07,7.09-8.38,12.2-18.21,15.01-28.89.47-1.78.87-3.58,1.21-5.4.16-.88.31-1.75.44-2.63.05-.3.08-.61.12-.91.08-.58.16-1.15.23-1.73.04-.35.07-.71.1-1.06.05-.53.11-1.05.15-1.58.03-.38.05-.76.07-1.14.03-.5.07-1,.09-1.5.02-.4.02-.8.04-1.2.01-.48.03-.96.04-1.44,0-.41,0-.81,0-1.22,0-.47,0-.95-.01-1.42-.01-.41-.03-.82-.05-1.23-.02-.47-.04-.94-.06-1.4-.02-.41-.06-.83-.09-1.24-.04-.46-.07-.92-.11-1.39-.04-.41-.09-.83-.13-1.24-.05-.46-.1-.92-.16-1.37-.05-.42-.12-.83-.18-1.24-.07-.45-.13-.91-.21-1.36-.07-.41-.15-.83-.22-1.24-.08-.45-.17-.9-.26-1.35-.08-.41-.17-.82-.26-1.23-.1-.45-.2-.89-.3-1.34-.1-.41-.2-.82-.31-1.23-.11-.44-.23-.89-.35-1.33-.11-.41-.23-.81-.35-1.21-.13-.44-.26-.88-.4-1.32-.13-.4-.26-.8-.39-1.2-.15-.44-.3-.88-.45-1.32-.14-.39-.28-.79-.43-1.18-.08-.22-.16-.44-.24-.66,11.89,16.17,17.77,36.19,16.57,56.52Z"/>
    </clipPath>
  </defs>
  <g>
    <path class="cls-3" d="M291.26,103.51l-41.95,94.43h22.39l8.42-20.24h43.74l8.42,20.24h22.93l-42.36-94.43h-21.58ZM287.01,161.12l14.97-36,14.97,36h-29.94Z"/>
    <path class="cls-3" d="M395.4,182.29c-2.7,0-4.84-.85-6.41-2.56-1.57-1.71-2.36-4.09-2.36-7.15v-29.41h17.94v-16.19h-17.94v-17.67h-21.18v17.67h-11.2v16.19h11.2v29.81c0,8.63,2.38,15.13,7.15,19.49,4.77,4.36,11.42,6.54,19.96,6.54,3.24,0,6.36-.38,9.38-1.15,3.01-.76,5.55-1.91,7.62-3.44l-5.53-14.84c-2.34,1.8-5.22,2.7-8.63,2.7Z"/>
    <rect class="cls-3" x="421.57" y="97.85" width="21.04" height="100.1"/>
    <path class="cls-3" d="M517.21,132.11c-6.12-5.21-14.7-7.82-25.77-7.82-5.76,0-11.42.74-17,2.23-5.58,1.48-10.34,3.67-14.3,6.54l7.42,14.7c2.7-2.07,5.91-3.71,9.65-4.92,3.73-1.21,7.53-1.82,11.4-1.82,5.67,0,9.87,1.26,12.61,3.78,2.74,2.52,4.12,6.03,4.12,10.52v.13h-16.59c-7.47,0-13.49.9-18.08,2.7-4.59,1.8-7.94,4.34-10.05,7.62-2.11,3.28-3.17,7.04-3.17,11.26s1.1,7.87,3.3,11.2c2.2,3.33,5.33,5.96,9.38,7.89,4.05,1.93,8.86,2.9,14.43,2.9,6.38,0,11.6-1.23,15.65-3.71,2.74-1.67,4.89-3.82,6.48-6.43v9.06h19.7v-41.41c0-11.06-3.06-19.2-9.17-24.42ZM499.34,182.43c-2.83,1.62-6.05,2.43-9.65,2.43s-6.45-.79-8.57-2.36c-2.11-1.57-3.17-3.71-3.17-6.41,0-2.43.92-4.45,2.77-6.07,1.84-1.62,5.24-2.43,10.18-2.43h14.43v7.42c-1.17,3.33-3.17,5.8-6,7.42Z"/>
    <path class="cls-3" d="M595.39,159.83c-2.65-1.48-5.51-2.63-8.57-3.44-3.06-.81-6.16-1.44-9.31-1.89-3.15-.45-6.03-.9-8.63-1.35-2.61-.45-4.72-1.15-6.34-2.09-1.62-.94-2.43-2.31-2.43-4.11,0-1.98,1.08-3.6,3.24-4.86,2.16-1.26,5.67-1.89,10.52-1.89,3.24,0,6.63.41,10.18,1.21,3.55.81,7.04,2.21,10.46,4.18l7.15-14.97c-3.51-1.98-7.8-3.53-12.88-4.65-5.08-1.12-10.14-1.69-15.18-1.69-7.01,0-13,.99-17.94,2.97-4.95,1.98-8.77,4.74-11.47,8.3-2.7,3.55-4.05,7.62-4.05,12.21,0,4.14.79,7.51,2.36,10.12,1.57,2.61,3.69,4.65,6.34,6.14,2.65,1.48,5.53,2.63,8.63,3.44,3.1.81,6.23,1.44,9.38,1.89,3.15.45,6,.9,8.57,1.35,2.56.45,4.63,1.1,6.21,1.96,1.57.86,2.36,2.14,2.36,3.85,0,2.07-1.01,3.69-3.04,4.86-2.02,1.17-5.46,1.75-10.32,1.75-4.41,0-8.88-.65-13.42-1.96-4.54-1.3-8.52-2.95-11.94-4.92l-6.88,14.97c3.42,2.25,7.96,4.12,13.62,5.6,5.67,1.48,11.6,2.22,17.81,2.22,7.28,0,13.47-.99,18.55-2.97,5.08-1.98,8.97-4.7,11.67-8.16,2.7-3.46,4.05-7.4,4.05-11.8,0-4.14-.79-7.51-2.36-10.12-1.57-2.61-3.69-4.65-6.34-6.14Z"/>
    <path class="cls-3" d="M681.25,107.63c-6.12-2.74-13.4-4.11-21.85-4.11h-40.88v94.43h21.99v-26.04h18.89c8.45,0,15.74-1.39,21.85-4.18,6.11-2.79,10.84-6.72,14.16-11.8,3.33-5.08,4.99-11.17,4.99-18.28s-1.67-13.08-4.99-18.21c-3.33-5.13-8.05-9.06-14.16-11.8ZM673.29,149.78c-3.42,2.88-8.45,4.32-15.11,4.32h-17.67v-32.78h17.67c6.65,0,11.69,1.42,15.11,4.25,3.42,2.83,5.13,6.86,5.13,12.07s-1.71,9.26-5.13,12.14Z"/>
    <path class="cls-3" d="M768.8,132.11c-6.12-5.21-14.7-7.82-25.77-7.82-5.76,0-11.42.74-17,2.23-5.58,1.48-10.34,3.67-14.3,6.54l7.42,14.7c2.7-2.07,5.91-3.71,9.65-4.92,3.73-1.21,7.53-1.82,11.4-1.82,5.67,0,9.87,1.26,12.61,3.78,2.74,2.52,4.12,6.03,4.12,10.52v.13h-16.59c-7.47,0-13.49.9-18.08,2.7-4.59,1.8-7.94,4.34-10.05,7.62-2.11,3.28-3.17,7.04-3.17,11.26s1.1,7.87,3.3,11.2c2.2,3.33,5.33,5.96,9.38,7.89,4.05,1.93,8.86,2.9,14.43,2.9,6.38,0,11.6-1.23,15.65-3.71,2.74-1.67,4.89-3.82,6.48-6.43v9.06h19.7v-41.41c0-11.06-3.06-19.2-9.17-24.42ZM750.92,182.43c-2.83,1.62-6.05,2.43-9.65,2.43s-6.45-.79-8.57-2.36c-2.11-1.57-3.17-3.71-3.17-6.41,0-2.43.92-4.45,2.77-6.07,1.84-1.62,5.24-2.43,10.18-2.43h14.43v7.42c-1.17,3.33-3.17,5.8-6,7.42Z"/>
    <path class="cls-3" d="M829.5,182.29c-2.7,0-4.84-.85-6.41-2.56-1.57-1.71-2.36-4.09-2.36-7.15v-29.41h17.94v-16.19h-17.94v-17.67h-21.18v17.67h-11.2v16.19h11.2v29.81c0,8.63,2.38,15.13,7.15,19.49,4.77,4.36,11.42,6.54,19.96,6.54,3.24,0,6.36-.38,9.38-1.15,3.01-.76,5.55-1.91,7.62-3.44l-5.53-14.84c-2.34,1.8-5.22,2.7-8.63,2.7Z"/>
    <path class="cls-3" d="M925.95,138.25c-2.61-4.72-6.18-8.23-10.72-10.52-4.54-2.29-9.69-3.44-15.45-3.44-6.21,0-11.74,1.3-16.59,3.91-2.44,1.31-4.6,2.91-6.48,4.79v-35.14h-21.04v100.1h21.04v-35.88c0-4.59.74-8.27,2.23-11.06,1.48-2.79,3.55-4.9,6.21-6.34,2.65-1.44,5.64-2.16,8.97-2.16,4.67,0,8.3,1.39,10.86,4.18,2.56,2.79,3.84,7.11,3.84,12.95v38.31h21.04v-41.55c0-7.37-1.3-13.42-3.91-18.14Z"/>
  </g>
  <g>
    <path class="cls-2" d="M47.73,96.57c14.23-14.47,33.21-22.24,53.4-21.88,8.93.32,17.5,3.22,24.77,8.38.95.67,2.2.65,3.12-.07.92-.72,1.26-1.91.87-3.02-.15-.43-.29-.86-.41-1.3-.42-1.56-.64-3.17-.64-4.79,0-4.81,1.85-9.35,5.2-12.76,3.35-3.41,7.8-5.29,12.53-5.29,1.14,0,2.28.11,3.39.33,1.23.24,2.39-.37,2.91-1.54.51-1.16.19-2.45-.8-3.22-7.6-5.91-16.06-10.45-25.14-13.52-8.85-2.99-18.09-4.51-27.45-4.51-11.28,0-22.27,2.17-32.67,6.46-10.77,4.44-20.43,10.96-28.7,19.38-12.58,12.81-20.88,29-24,46.81-3.05,17.4-.99,35.12,5.95,51.24l.05.12c.55,1.27,1.72,2.03,3.02,2.03.28,0,.57-.04.86-.11,1.62-.42,2.66-1.9,2.52-3.59-1.8-22.03,5.94-43.6,21.23-59.17ZM23.87,155.96c.05.56-.36.72-.54.77-.22.06-.61.08-.82-.41l-.05-.11c-6.73-15.63-8.72-32.82-5.76-49.69,3.03-17.27,11.08-32.97,23.27-45.39,8.02-8.17,17.38-14.49,27.82-18.79,10.09-4.16,20.75-6.26,31.68-6.26,9.08,0,18.04,1.47,26.63,4.37,8.79,2.97,16.98,7.37,24.36,13.1-1.27-.25-2.58-.38-3.89-.38,0,0,0,0,0,0-5.43,0-10.54,2.16-14.39,6.08-3.85,3.92-5.97,9.13-5.97,14.66,0,1.86.25,3.71.73,5.5.13.49.29.98.46,1.48-7.7-5.46-16.75-8.52-26.2-8.86h-.02c-20.93-.37-40.57,7.68-55.32,22.66-15.84,16.13-23.86,38.47-22,61.28ZM164.9,179.76c12.54-14.65,20.01-33.13,21.17-52.68,1.26-21.4-5.08-42.46-17.85-59.31-.71-.94-1.95-1.25-3.01-.74-1.06.51-1.62,1.68-1.35,2.84l.02.09c.28,1.29.43,2.61.43,3.94,0,.84-.07,1.66-.18,2.47-2.56,12.92-24.3,34.55-19.3,29.45-.83.84-1.18,2.03-.97,3.19.69,3.7,2.07,12,1.67,16.73-.94,11.05-5.66,21.45-13.35,29.28-4.07,4.14-8.81,7.44-14.09,9.79-3.65,1.63-7.51,2.77-11.47,3.4-7.05,1.11-14.36.55-21.14-1.63-7.01-2.25-13.47-6.25-18.69-11.57-4.07-4.14-7.31-8.97-9.62-14.34-1.28-2.97-2.26-6.1-2.91-9.3-1.29-6.31-1.31-12.7-.06-19.02,1.2-6.06,3.52-11.75,6.89-16.87-.45-2.83-2.89-3.58-4.39-2.25l-.07.06c-1.13,1.01-2.21,2.03-3.2,3.04-9.49,9.66-15.75,21.88-18.11,35.32-2.3,13.13-.75,26.49,4.48,38.66,3.28,7.61,7.86,14.44,13.62,20.31,10.97,11.17,25.56,18.02,41.06,19.27h.03c1.63.1,3.26.14,4.88.14,12.03,0,24.04-2.54,35.01-7.43,8.99-4.01,17.18-9.51,24.35-16.34h.01s.12-.12.12-.12M168.87,90.1c.12,1.22.2,2.44.26,3.67.01.26.03.53.04.79.05,1.21.07,2.41.05,3.62,0,.2-.01.41-.01.61-.01,1.1-.07,2.2-.14,3.29-.01.21-.02.41-.04.62-.09,1.21-.21,2.41-.36,3.62-.03.26-.07.52-.1.78-.17,1.24-.35,2.47-.58,3.71-2.62,14.05-9.26,26.84-19.21,36.96-5.75,5.86-12.38,10.6-19.69,14.09-.63.3-1.27.58-1.91.86,2.45-1.71,4.74-3.65,6.86-5.81,8.13-8.28,13.14-19.27,14.11-30.95.45-5.44,0-10.88-1.27-16.1-.24-1,.01-2.06.73-2.8-4.56,4.75,16.13-15.89,18.66-28.27l.22-.59c.03-.08.06-.17.09-.25.04.15.08.3.12.44.29.91.51,1.85.69,2.79.06.32.14.63.21.94.25,1.18.47,2.36.67,3.54M133.35,200.14c-12.06,5.38-25.44,7.83-38.67,7.07-14.87-1.2-28.86-7.77-39.39-18.49-5.53-5.63-9.93-12.19-13.07-19.49-5.02-11.67-6.51-24.51-4.3-37.11,2.26-12.9,8.27-24.62,17.38-33.89.75-.77,1.55-1.54,2.4-2.31-2.92,4.9-4.96,10.24-6.08,15.9-1.31,6.65-1.29,13.4.06,20.05.06.46.14.92.22,1.38.08.53.16,1.06.25,1.59.09.48.19.96.28,1.44.1.5.19,1.01.3,1.51.11.5.23.99.35,1.48.11.48.22.96.34,1.43.14.53.29,1.05.44,1.57.12.43.24.87.37,1.3.16.54.35,1.08.53,1.62.13.4.25.81.39,1.21.19.54.4,1.08.6,1.62.14.39.28.78.43,1.16.21.55.45,1.09.68,1.63.15.37.3.74.46,1.1.25.57.52,1.13.79,1.7.15.33.3.66.46.98.28.57.58,1.13.87,1.69.16.31.31.63.48.93.32.6.66,1.18,1,1.77.15.27.3.54.45.8.37.62.75,1.23,1.14,1.83.14.22.28.45.42.68.43.67.88,1.32,1.34,1.98.11.16.21.32.32.47.4.56.82,1.12,1.23,1.67.18.24.35.48.53.72.45.59.92,1.16,1.39,1.73.16.19.31.39.47.59.48.57.97,1.12,1.46,1.68.17.19.33.39.5.57.67.74,1.36,1.47,2.06,2.18,4.6,4.69,9.74,8.68,15.29,11.91,7.13,4.15,14.94,7.04,23.17,8.54.01,0,.02,0,.04,0,.96.17,1.92.32,2.88.46.3.04.6.08.89.12.7.09,1.4.17,2.11.24.31.03.62.06.93.09.83.07,1.66.13,2.49.17.15,0,.29.02.44.03.97.04,1.94.06,2.91.07.08,0,.16,0,.24,0,.15,0,.29-.01.44-.01.96,0,1.92-.03,2.88-.08.21,0,.42-.02.64-.03,1.1-.06,2.19-.15,3.28-.26.25-.03.51-.06.76-.09.89-.1,1.78-.2,2.66-.35.23-.04.46-.07.69-.1,1.09-.17,2.17-.38,3.24-.6.27-.06.53-.12.79-.17.89-.19,1.79-.39,2.67-.64.19-.06.39-.1.58-.15,1.06-.29,2.12-.6,3.17-.94.57-.18,1.14-.39,1.72-.55.53-.15,1.06-.31,1.55-.56.22-.12.46-.19.68-.28.04-.02.09-.03.13-.05-5,3.76-10.39,6.93-16.12,9.49ZM183.44,126.91c-1.23,20.93-9.92,40.6-24.45,55.4-.52.53-1.09,1.09-1.77,1.75-.59.33-1.19.64-1.79.95-.3.16-.6.33-.9.48-.93.47-1.87.91-2.82,1.34-12.53,5.59-26.29,7.31-39.82,5-.25-.04-.5-.08-.75-.12-5.29-.96-10.4-2.52-15.25-4.64-3.24-1.41-6.36-3.07-9.35-4.97-4.48-2.85-8.66-6.22-12.46-10.1-.01-.01-.02-.02-.03-.03-.72-.74-1.42-1.49-2.11-2.25-.23-.26-.45-.52-.68-.78-.46-.52-.91-1.05-1.35-1.58-.26-.31-.5-.63-.75-.94-.4-.5-.79-1-1.18-1.51-.25-.33-.5-.67-.74-1.01-.37-.51-.73-1.02-1.08-1.53-.23-.34-.47-.68-.7-1.03-.36-.54-.7-1.09-1.04-1.64-.2-.33-.41-.65-.61-.98-.38-.64-.75-1.28-1.11-1.93-.14-.25-.29-.5-.42-.75-.49-.9-.96-1.81-1.4-2.73-.1-.2-.18-.4-.28-.6-.35-.73-.68-1.46-1-2.2-.03-.07-.06-.14-.09-.21,1.62,2.35,3.43,4.55,5.45,6.6,5.52,5.62,12.35,9.85,19.76,12.23,7.15,2.3,14.86,2.89,22.3,1.73.69-.07,1.38-.17,2.07-.27.31-.04.62-.07.93-.12.64-.1,1.28-.21,1.91-.33.36-.06.72-.12,1.08-.19.61-.12,1.22-.26,1.83-.39.38-.08.76-.16,1.14-.24.61-.15,1.22-.31,1.83-.48.37-.1.74-.18,1.1-.29.6-.17,1.2-.36,1.79-.55.37-.11.73-.22,1.1-.34.7-.23,1.4-.49,2.09-.74.25-.09.51-.17.76-.27.66-.25,1.32-.52,1.98-.79.28-.11.56-.22.84-.34.93-.4,1.85-.81,2.77-1.25,7.59-3.62,14.47-8.55,20.44-14.63,1.29-1.31,2.53-2.67,3.71-4.07,7.09-8.38,12.2-18.21,15.01-28.89.47-1.78.87-3.58,1.21-5.4.16-.88.31-1.75.44-2.63.05-.3.08-.61.12-.91.08-.58.16-1.15.23-1.73.04-.35.07-.71.1-1.06.05-.53.11-1.05.15-1.58.03-.38.05-.76.07-1.14.03-.5.07-1,.09-1.5.02-.4.02-.8.04-1.2.01-.48.03-.96.04-1.44,0-.41,0-.81,0-1.22,0-.47,0-.95-.01-1.42-.01-.41-.03-.82-.05-1.23-.02-.47-.04-.94-.06-1.4-.02-.41-.06-.83-.09-1.24-.04-.46-.07-.92-.11-1.39-.04-.41-.09-.83-.13-1.24-.05-.46-.1-.92-.16-1.37-.05-.42-.12-.83-.18-1.24-.07-.45-.13-.91-.21-1.36-.07-.41-.15-.83-.22-1.24-.08-.45-.17-.9-.26-1.35-.08-.41-.17-.82-.26-1.23-.1-.45-.2-.89-.3-1.34-.1-.41-.2-.82-.31-1.23-.11-.44-.23-.89-.35-1.33-.11-.41-.23-.81-.35-1.21-.13-.44-.26-.88-.4-1.32-.13-.4-.26-.8-.39-1.2-.15-.44-.3-.88-.45-1.32-.14-.39-.28-.79-.43-1.18-.08-.22-.16-.44-.24-.66,11.89,16.17,17.77,36.19,16.57,56.52Z"/>
    <g class="cls-1">
      <ellipse class="cls-3" cx="99.52" cy="121.73" rx="95.3" ry="97.04"/>
    </g>
  </g>
  <path class="cls-3" d="M154.26,65.56c-2.11-2.11-4.87-3.16-7.62-3.16s-5.52,1.05-7.62,3.16c-4.21,4.21-4.76,10.16-.68,16.19,2.07,3.06,8.31,10.72,8.31,10.72,0,0,6.23-7.66,8.31-10.72,4.08-6.03,3.53-11.98-.68-16.19ZM146.64,79.37c-3.41,0-6.18-2.77-6.18-6.18s2.77-6.18,6.18-6.18,6.18,2.77,6.18,6.18-2.77,6.18-6.18,6.18Z"/>
  <g>
    <path class="cls-3" d="M134.97,42.66c1.99.83,3.97,1.74,5.9,2.73l16.76-33.53c.8-1.6.15-3.56-1.45-4.36-1.6-.8-3.56-.15-4.36,1.45l-16.85,33.71Z"/>
    <path class="cls-3" d="M58.87,194.85l-18.05,36.1c-.8,1.6-.15,3.56,1.45,4.36.46.23.94.34,1.45.34,1.24,0,2.36-.69,2.91-1.8l17.92-35.84c-1.94-.99-3.84-2.05-5.68-3.17Z"/>
  </g>
  <path class="cls-3" d="M215.73,123.4c0-44.6-26.33-85.14-67.09-103.28l-3.25,7.31c37.87,16.86,62.34,54.53,62.34,95.97,0,57.9-47.1,105-105,105-17.92,0-35.62-4.59-51.16-13.29l-3.9,6.98c14.47,8.09,30.66,12.87,47.24,14.02v21.66h-11.89c-2.5,0-4.53,2.03-4.53,4.53s2.03,4.53,4.53,4.53h40.51c2.5,0,4.53-2.03,4.53-4.53s-2.03-4.53-4.53-4.53h-11.89v-21.73c58.16-4.56,104.09-53.34,104.09-112.65Z"/>
</svg>