<svg fill="none" height="127" viewBox="0 0 141 127" width="141" xmlns="http://www.w3.org/2000/svg"><path d="m4.26074 19.2171c0-8.0682 6.54056-14.6087 14.60866-14.6087h102.2606c8.068 0 14.609 6.5405 14.609 14.6087v81.5649c0 8.068-6.541 14.609-14.609 14.609h-102.2606c-8.0681 0-14.60866-6.541-14.60866-14.609z" fill="#fef0ec"/><g fill="#f36e45"><path d="m43.1327 54.7376c-.9709-.972-2.5451-.972-3.516 0l-1.7581 1.7601c-.9709.972-.9709 2.548 0 3.52l6.1762 6.1833-6.1392 6.1462c-.9709.9721-.9709 2.5481 0 3.5201l1.758 1.7601c.971.972 2.5452.972 3.5161 0l6.1392-6.1463 6.1301 6.1371c.9709.972 2.5451.972 3.5161 0l1.758-1.7601c.9709-.972.9709-2.548 0-3.5201l-6.1301-6.137 6.1671-6.1741c.9709-.972.9709-2.548 0-3.52l-1.7581-1.7601c-.9709-.972-2.5451-.972-3.516 0l-6.1671 6.1741z"/><path d="m85.0281 54.7376c-.9709-.972-2.5451-.972-3.5161 0l-1.758 1.7601c-.9709.972-.9709 2.548 0 3.52l6.1762 6.1833-6.1392 6.1462c-.971.9721-.971 2.5481 0 3.5201l1.758 1.7601c.971.972 2.5451.972 3.5161 0l6.1392-6.1463 6.1301 6.1371c.9709.972 2.5451.972 3.5156 0l1.758-1.7601c.971-.972.971-2.548 0-3.5201l-6.1296-6.137 6.1666-6.1741c.971-.972.971-2.548 0-3.52l-1.758-1.7601c-.9705-.972-2.5447-.972-3.5157 0l-6.167 6.1741z"/><path clip-rule="evenodd" d="m70.0002 94.6955c-4.9201 0-8.6893 2.4564-10.1343 5.3045-.9126 1.799-3.1107 2.517-4.9094 1.605-1.7988-.913-2.5172-3.111-1.6046-4.9098 2.9059-5.7275 9.4894-9.3041 16.6483-9.3041s13.7424 3.5766 16.6483 9.3041c.9126 1.7988.1942 3.9968-1.6046 4.9098-1.7988.912-3.9968.194-4.9094-1.605-1.445-2.8481-5.2143-5.3045-10.1343-5.3045z" fill-rule="evenodd"/><path clip-rule="evenodd" d="m18.8696.347656c-10.42141 0-18.8696 8.448194-18.8696 18.869544v81.5648c0 10.422 8.44819 18.87 18.8696 18.87h102.2604c10.422 0 18.87-8.448 18.87-18.87v-81.5648c0-10.42135-8.448-18.869544-18.87-18.869544zm-10.34786 38.347844v62.0865c0 5.715 4.63286 10.348 10.34786 10.348h102.2604c5.715 0 10.348-4.633 10.348-10.348v-62.0865zm9.13046-19.4783c0-.6723.545-1.2174 1.2174-1.2174h4.8695c.6724 0 1.2174.5451 1.2174 1.2174v4.8696c0 .6723-.545 1.2174-1.2174 1.2174h-4.8695c-.6724 0-1.2174-.5451-1.2174-1.2174zm18.2608-1.2174c-.6723 0-1.2173.5451-1.2173 1.2174v4.8696c0 .6723.545 1.2174 1.2173 1.2174h4.8696c.6724 0 1.2174-.5451 1.2174-1.2174v-4.8696c0-.6723-.545-1.2174-1.2174-1.2174zm15.8261 1.2174c0-.6723.5451-1.2174 1.2174-1.2174h4.8696c.6723 0 1.2174.5451 1.2174 1.2174v4.8696c0 .6723-.5451 1.2174-1.2174 1.2174h-4.8696c-.6723 0-1.2174-.5451-1.2174-1.2174z" fill-rule="evenodd"/></g></svg>