<svg fill="none" height="141" viewBox="0 0 140 141" width="140" xmlns="http://www.w3.org/2000/svg" xmlns:xlink="http://www.w3.org/1999/xlink"><linearGradient id="a" gradientUnits="userSpaceOnUse" x1="42.2102" x2="160.2" y1=".550293" y2="46.6339"><stop offset="0" stop-color="#00cbe0"/><stop offset=".333333" stop-color="#006bfa"/><stop offset=".666667" stop-color="#1b1cdd"/><stop offset="1" stop-color="#640bed"/></linearGradient><path d="m59.2919 81.2076c-.7281-.7241-1.713-1.1306-2.7396-1.1306s-2.0115.4065-2.7396 1.1306l-25.725 25.7384c-2.6278-1.431-5.6504-1.967-8.6097-1.525s-5.6938 1.838-7.7891 3.975l-10.49206 10.42c-.723762.728-1.1300077 1.714-1.1300077 2.741s.4062457 2.012 1.1300077 2.741l14.02836 14.036c.728.724 1.7129 1.13 2.7396 1.13 1.0266 0 2.0115-.406 2.7396-1.13l10.4143-10.498c2.1116-2.114 3.4804-4.856 3.9009-7.815.4204-2.958-.1302-5.974-1.5693-8.593l25.725-25.7383c.7395-.7129 1.1669-1.6897 1.1887-2.717.0218-1.0272-.3636-2.0213-1.0721-2.7651zm6.1787-34.0202-11.0361-11.2364c1.4247-4.979 1.431-10.2573.0181-15.2396-1.4129-4.9824-4.1888-9.4709-8.0148-12.95929-3.8259-3.48843-8.5498-5.83817-13.639-6.784291-5.0892-.9461241-10.3413-.451017-15.1644 1.429501-.6045.23187-1.1415.61117-1.5623 1.10347-.4207.49229-.7119 1.08196-.847 1.71545-.1352.63349-.11 1.29072.0733 1.91198.1832.62127.5187 1.18688.976 1.64546l13.834 13.84142-2.0207 5.9875-5.9844 2.0218-13.83401-13.8414c-.45834-.4575-1.02365-.7931-1.64459-.9765-.62093-.1833-1.27782-.2085-1.91097-.0733s-1.22251.4265-1.71454.8475-.87113.9583-1.10288 1.5631c-1.8795167 4.8256-2.374361 10.0806-1.42874 15.1725.94562 5.0919 3.29411 9.8182 6.78069 13.6462 3.48654 3.828 7.97264 6.6054 12.95234 8.019 4.9797 1.4137 10.2552 1.4074 15.2315-.0181l15.3107 15.28 2.7202 2.7216c.7281.7241 1.713 1.1306 2.7396 1.1306s2.0115-.4065 2.7396-1.1306l.3497-.3111c1.2648-1.2695 2.2608-2.7812 2.9285-4.4446.6676-1.6634.9933-3.4444.9575-5.2365.0378-2.3323-.5242-4.6351-1.6321-6.6874l3.8859-3.8881c.718-.7242 1.1227-1.7016 1.127-2.7216-.0519-.9333-.4382-1.8167-1.0881-2.4883zm66.3334 45.9176c-3.502-3.4824-7.868-5.9696-12.648-7.2064-4.78-1.2367-9.803-1.1784-14.554.169l-8.2769-8.2426-2.7202-2.7216c-.728-.7241-1.7129-1.1306-2.7396-1.1306-1.0266 0-2.0115.4065-2.7396 1.1306l-3.8859 3.888c-2.6301-1.3909-5.6324-1.9143-8.5776-1.4954-2.9453.419-5.6828 1.759-7.8212 3.8282l-.3108.35c-.7238.7284-1.1301 1.7139-1.1301 2.741 0 1.0272.4063 2.0126 1.1301 2.7411l2.7201 2.7605 15.2718 15.1632c-1.1779 4.135-1.3813 8.486-.5941 12.713.7871 4.227 2.5434 8.213 5.1307 11.646 2.5872 3.432 5.935 6.218 9.7801 8.137 3.8452 1.919 8.0832 2.92 12.3802 2.924 3.452-.008 6.875-.641 10.103-1.866.605-.232 1.142-.611 1.562-1.104.421-.492.712-1.082.848-1.715.135-.634.109-1.291-.074-1.912s-.518-1.187-.976-1.646l-13.834-13.841 2.021-5.988 5.984-2.021 13.834 13.841c.459.458 1.024.793 1.645.977.621.183 1.278.208 1.911.073s1.222-.427 1.714-.848.872-.958 1.103-1.563c1.949-5.037 2.396-10.533 1.285-15.819s-3.73-10.1367-7.541-13.963zm-55.2973-8.0482c.7563-.1562 1.5365-.1562 2.2927 0-.7301-.1554-1.4848-.1554-2.215 0z" fill="#00cbe0"/><path d="m132.97 7.49052c-4.458-4.44458-10.494-6.940227-16.787-6.940227-6.294 0-12.33 2.495647-16.7878 6.940227l-36.6835 36.74188-2.7201 2.7605-2.7979 2.7605-3.3808 3.3825c-.7322.7179-1.1512 1.6961-1.1658 2.7217-.003.5117.0951 1.0189.2885 1.4926.1933.4737.4783.9046.8384 1.2679.579.5636 1.0337 1.2422 1.3348 1.9922.3012.7499.4422 1.5546.4139 2.3623.04.3358.04.6752 0 1.0109-.212 1.2108-.7961 2.3252-1.6709 3.1882l-3.0311 3.0716-1.2046 1.2052-.7772-.7776c-.7281-.7241-1.713-1.1306-2.7396-1.1306-1.0267 0-2.0116.4065-2.7396 1.1306-.3643.3615-.6534.7915-.8506 1.2653-.1973.4738-.2989.982-.2989 1.4952 0 .5133.1016 1.0215.2989 1.4953.1972.4738.4863.9038.8506 1.2652l3.4973 3.4993 4.2746 4.2768 5.4792 5.4821 4.2745 4.2768 3.4974 3.4993c.3631.3603.7937.6454 1.2672.8389.4734.1935.9804.2915 1.4918.2886.5114.0029 1.0184-.0951 1.4919-.2886.4734-.1935.9041-.4786 1.2672-.8389.7237-.7285 1.13-1.7139 1.13-2.7411s-.4063-2.0126-1.13-2.7411l-.7772-.7776 1.2046-1.1664 3.1088-3.0715c.8687-.8745 2.0033-1.4353 3.2253-1.5941.7302-.1554 1.4849-.1554 2.215 0h.1943c.309.0494.6097.141.8938.2722.7513.2677 1.4299.707 1.9818 1.283.7281.7242 1.713 1.1306 2.7396 1.1306s2.0115-.4064 2.7396-1.1306l3.4197-3.4214 5.4792-5.4822 36.7227-36.7418c4.451-4.455 6.952-10.4966 6.952-16.7963 0-6.2996-2.501-12.3413-6.952-16.79626z" fill="url(#a)"/></svg>